<svg width="45" height="45" viewBox="0 0 45 45" fill="none" xmlns="http://www.w3.org/2000/svg">
<g clip-path="url(#clip0_41_41)">
<path fill-rule="evenodd" clip-rule="evenodd" d="M37.0819 8.30618C37.5452 8.11117 38.0524 8.04391 38.5505 8.1114C39.0487 8.1789 39.5197 8.37869 39.9144 8.68997C40.3092 9.00125 40.6133 9.41265 40.7951 9.88134C40.9769 10.35 41.0297 10.8589 40.9481 11.3549L36.6956 37.1493C36.2831 39.6374 33.5531 41.0643 31.2712 39.8249C29.3625 38.7881 26.5275 37.1906 23.9775 35.5237C22.7025 34.6893 18.7969 32.0174 19.2769 30.1162C19.6894 28.4906 26.2519 22.3818 30.0019 18.7499C31.4737 17.3231 30.8025 16.4999 29.0644 17.8124C24.7462 21.0712 17.8181 26.0268 15.5269 27.4218C13.5056 28.6518 12.4519 28.8618 11.1919 28.6518C8.89312 28.2693 6.76124 27.6768 5.02124 26.9549C2.66999 25.9799 2.78437 22.7474 5.01937 21.8062L37.0819 8.30618V8.30618Z" fill="black"/>
</g>
<defs>
<clipPath id="clip0_41_41">
<rect width="45" height="45" fill="white"/>
</clipPath>
</defs>
</svg>
