<svg width="51" height="51" viewBox="0 0 51 51" fill="none" xmlns="http://www.w3.org/2000/svg">
<path d="M25.5 42.5C30.0087 42.5 34.3327 40.7089 37.5208 37.5208C40.7089 34.3327 42.5 30.0087 42.5 25.5C42.5 20.9913 40.7089 16.6673 37.5208 13.4792C34.3327 10.2911 30.0087 8.5 25.5 8.5C20.9913 8.5 16.6673 10.2911 13.4792 13.4792C10.2911 16.6673 8.5 20.9913 8.5 25.5C8.5 30.0087 10.2911 34.3327 13.4792 37.5208C16.6673 40.7089 20.9913 42.5 25.5 42.5V42.5ZM25.5 46.75C13.7636 46.75 4.25 37.2364 4.25 25.5C4.25 13.7636 13.7636 4.25 25.5 4.25C37.2364 4.25 46.75 13.7636 46.75 25.5C46.75 37.2364 37.2364 46.75 25.5 46.75Z" fill="black"/>
<path d="M36.125 19.0124C35.343 19.3524 34.5036 19.5861 33.6217 19.6881C34.5227 19.1569 35.2112 18.3154 35.5385 17.3145C34.6799 17.8149 33.7431 18.1669 32.7675 18.3558C32.3571 17.9256 31.8634 17.5836 31.3165 17.3505C30.7696 17.1174 30.1809 16.9981 29.5864 17C27.1788 17 25.228 18.9231 25.228 21.2925C25.228 21.6283 25.2663 21.9555 25.3406 22.27C23.6137 22.188 21.9228 21.7469 20.3759 20.9749C18.8289 20.2029 17.4599 19.1169 16.3561 17.7863C15.9684 18.4389 15.7643 19.1841 15.7654 19.9431C15.7654 21.4306 16.5367 22.7481 17.7055 23.5153C17.0137 23.4936 16.3367 23.3094 15.7292 22.9776V23.0308C15.7358 24.0284 16.0879 24.9929 16.7257 25.76C17.3634 26.5272 18.2474 27.0496 19.227 27.2383C18.5839 27.4083 17.911 27.433 17.2571 27.3105C17.5421 28.1687 18.0873 28.9169 18.8169 29.4512C19.5465 29.9855 20.4244 30.2793 21.3286 30.2919C19.7773 31.4873 17.8726 32.1332 15.9141 32.1279C15.5635 32.1279 15.2171 32.1066 14.875 32.0684C16.8735 33.3334 19.1908 34.0034 21.556 34C29.5757 34 33.9596 27.4593 33.9596 21.7855L33.9447 21.2288C34.7996 20.628 35.5383 19.877 36.125 19.0124V19.0124Z" fill="black"/>
</svg>
