<svg width="416" height="377" viewBox="0 0 416 377" fill="none" xmlns="http://www.w3.org/2000/svg">
<path d="M165.102 82.3393C182.327 88.8597 195.348 99.0152 209.272 111.194C218.478 119.245 236.24 132.977 241.052 145.784C242.485 149.599 237.256 154.001 235.086 155.823C225.99 163.459 215.603 166.254 203.823 166.378C180.031 166.628 159.969 156.737 148.753 135.229C135.333 109.494 139.079 79.0051 159.021 57.7874C193.514 21.0892 243.849 29.0352 284.878 50.3301C306.274 61.4347 322.844 77.3254 337.883 95.8199C347.729 107.928 360.682 122.843 365.418 138.27C374.81 168.859 339.728 195.813 316.429 207.164C291.288 219.412 263.451 225.002 235.717 226.783C205.816 228.703 170.912 227.814 144.049 212.556C120.818 199.362 110.495 170.836 110.032 145.268C109.723 128.164 113.075 110.469 117.948 94.1564C127.017 63.8035 141.929 31.695 171.756 16.3704C213.285 -4.96625 259.449 -1.60599 300.023 20.3286C344.171 44.1956 376.956 86.2614 397.542 131.214C409.458 157.235 415.988 187.035 412.686 215.597C409.519 242.989 394.716 263.185 374.539 281.164C327.061 323.469 267.888 353.199 206.175 367.956C183.984 373.263 161.578 376.417 138.714 374.209C107.648 371.209 77.0033 360.757 47.0462 352.525C33.4876 348.799 21.9622 343.939 9.12842 338.7C6.80077 337.75 3.54139 337.932 1.95789 336.348" stroke="white" stroke-width="3" stroke-linecap="round" stroke-dasharray="6 6"/>
</svg>
