<svg width="12" height="12" viewBox="0 0 12 12" fill="none" xmlns="http://www.w3.org/2000/svg">
<path d="M6 1C8.76 1 11 3.24 11 6C11 8.76 8.76 11 6 11C3.24 11 1 8.76 1 6C1 3.24 3.24 1 6 1ZM6 3.5C4.62 3.5 3.5 4.62 3.5 6C3.50074 6.5464 3.6804 7.07752 4.01151 7.51217C4.34262 7.94682 4.80696 8.26108 5.33355 8.4069C5.86013 8.55272 6.41998 8.52208 6.92751 8.31966C7.43503 8.11724 7.8623 7.75419 8.144 7.286L7.2865 6.772C7.15155 6.99681 6.96003 7.18232 6.73103 7.31004C6.50203 7.43775 6.24356 7.50321 5.98137 7.49988C5.71919 7.49655 5.46246 7.42455 5.23677 7.29107C5.01109 7.15758 4.82434 6.96726 4.69514 6.7391C4.56595 6.51093 4.49882 6.25289 4.50044 5.99069C4.50207 5.72849 4.5724 5.47129 4.70442 5.24475C4.83644 5.0182 5.02554 4.83022 5.25287 4.69955C5.48019 4.56888 5.73779 4.50007 6 4.5C6.5465 4.5 7.025 4.792 7.287 5.2285L8.144 4.7135C7.92187 4.34328 7.60763 4.03692 7.23189 3.82426C6.85616 3.61159 6.43174 3.49988 6 3.5V3.5Z" fill="#F8F8F8"/>
</svg>
